<?xml version="1.0" encoding="utf-8"?>
<svg viewBox="0 0 500 500" xmlns="http://www.w3.org/2000/svg">
  <defs>
    <filter id="b">
      <feGaussianBlur stdDeviation=".24338"/>
    </filter>
  </defs>
  <g style="" transform="matrix(4.669253, 0, 0, 6.564343, 173.664154, 81.266991)">
    <g>
      <circle cx="11.079" cy="17.836" r="2.126" style="fill: rgb(53, 24, 4);"/>
      <path d="M31.553,16.116c0-2.627-2.068-4.764-4.61-4.764c-0.892,0-1.72,0.27-2.425,0.722c-2.187-1.27-4.945-2.059-7.957-2.167 l1.736-4.984l3.596,0.861c-0.012,0.119-0.035,0.233-0.035,0.355c0,1.982,1.613,3.595,3.596,3.595c1.98,0,3.596-1.612,3.596-3.595 s-1.615-3.595-3.596-3.595c-1.293,0-2.417,0.69-3.05,1.715l-5.142-1.23l-2.4,6.888c-2.998,0.154-5.727,0.99-7.873,2.294 c0.043-0.03,0.08-0.064,0.123-0.094c-0.722-0.482-1.579-0.766-2.501-0.766c-2.543,0-4.61,2.136-4.61,4.764 c0,1.757,0.935,3.281,2.312,4.104c0.564,4.912,6.419,8.789,13.549,8.789c7.176,0,13.061-3.929,13.559-8.886 C30.699,19.279,31.553,17.8,31.553,16.116z M25.452,4.146c1.099,0,1.994,0.895,1.994,1.995c0,1.099-0.896,1.994-1.994,1.994 c-1.103,0-1.996-0.895-1.996-1.994C23.456,5.04,24.352,4.146,25.452,4.146z M4.61,12.952c0.363,0,0.705,0.079,1.027,0.203 c-1.74,1.395-2.909,3.145-3.261,5.077c-0.481-0.562-0.778-1.302-0.778-2.116C1.598,14.372,2.95,12.952,4.61,12.952z M15.86,27.41 c-6.621,0-12.006-3.572-12.006-7.963c0-4.392,5.385-7.963,12.006-7.963c6.62,0,12.004,3.572,12.004,7.963 C27.864,23.837,22.48,27.41,15.86,27.41z M29.305,18.058c-0.393-1.88-1.559-3.581-3.272-4.941c0.289-0.098,0.591-0.165,0.91-0.165 c1.659,0,3.01,1.419,3.01,3.164C29.951,16.85,29.705,17.521,29.305,18.058z" style="fill: rgb(53, 24, 4);"/>
      <circle cx="20.221" cy="17.836" r="2.126" style="fill: rgb(53, 24, 4);"/>
      <path d="M19.879,22.562c-4.504,2.973-8.138,0.172-8.3,0.045c-0.345-0.277-0.847-0.222-1.123,0.121 c-0.276,0.346-0.224,0.848,0.12,1.125c0.03,0.025,2.106,1.657,5.121,1.657c1.499,0,3.232-0.405,5.062-1.612 c0.369-0.244,0.471-0.74,0.229-1.107C20.743,22.421,20.247,22.318,19.879,22.562z" style="fill: rgb(53, 24, 4);"/>
    </g>
  </g>
  <g transform="matrix(7.518056, -0.004614, 0.004906, 7.993796, 14.412552, 3.507329)" style="">
    <g transform="translate(-.54468 -1.9064)" fill="#001000" filter="url(#b)">
      <g transform="translate(.27234,.27234)">
        <path d="m37.867 53.851c-12.969-13.287-10.453 4.822-22.15-4.0609 12.408 1.8981 8.9231-7.861 22.962 3.101l-0.81218 0.95985z" style="fill: rgb(35, 31, 29);"/>
        <path d="m25.758 48.019c-6.1761-2.3157-1.7878-1.0064-8.8601-5.9806 2.3045 3.4939 1.9518 5.1538 5.6114 5.9806-5.5657-1.3068-6.0419 1.001-11.149-2.7319 3.4232 3.3986 3.9313 5.927 14.398 2.7319z" style="fill: rgb(35, 31, 29);"/>
        <path d="m19.012 46.946c-4.1908-5.0935-1.1928-4.4974-5.6427-10.274 1.4301 4.3996 0.07335 6.1037 2.8292 8.6496-4.1667-3.9145-5.2161-1.2681-8.5109-6.6113 1.2652 4.6549 0.66257 5.7695 11.324 8.2357z" style="fill: rgb(35, 31, 29);"/>
        <path d="m13.947 42.834c-1.9686-4.956-0.77773-8.6259-2.2601-11.276-0.8874 4.599-0.92097 6.061 0.04507 8.5362-2.168-4.5874-3.0711-2.0819-5.9108-7.9875-0.19804 4.8854 2.4883 7.3952 8.1258 10.727z" style="fill: rgb(35, 31, 29);"/>
        <path d="m10.282 36.829c-0.61882-5.2967 1.186-3.9556 1.6213-11.403-2.7858 4.6557-3.049 5.8376-2.7565 8.4784-0.90682-4.9922-1.6893-3.1011-2.9038-9.5405-1.4557 4.6676-0.54422 7.7872 4.0389 12.465z" style="fill: rgb(35, 31, 29);"/>
        <path d="m8.6903 30.219c0.99465-5.2025 4.1629-4.3998 4.665-9.93-1.6808 3.8498-3.7914 1.6747-4.5616 6.7378 0.41616-5.0568-1.1244-6.7552 0.25513-9.524-3.4264 3.4673-1.8767 6.1997-0.35852 12.716z" style="fill: rgb(35, 31, 29);"/>
        <path d="m9.5025 23.943c1.6592-4.8333 5.6396-2.7016 6.1417-8.2318-1.6808 2.5946-3.2008 1.4532-5.3738 5.5564 1.1545-3.1371-0.16456-3.3588 2.6917-7.2351-3.6479 1.9906-3.944 3.5417-3.4596 9.9105z" style="fill: rgb(35, 31, 29);"/>
        <path d="m11.803 18.337c4.3408-3.1177 2.278-2.8282 6.4974-6.9404-6.3889 2.5786-4.8099 3.349-6.4974 6.9404z" style="fill: rgb(35, 31, 29);"/>
      </g>
      <path d="m25.319 53.851c12.969-13.287 10.453 4.822 22.15-4.0609-12.408 1.8981-8.9231-7.861-22.962 3.101l0.81218 0.95985z" style="fill: rgb(35, 31, 29);"/>
      <path d="m37.428 48.019c6.1761-2.3157 1.7878-1.0064 8.8601-5.9806-2.3045 3.4939-1.9518 5.1538-5.6114 5.9806 5.5657-1.3068 6.0419 1.001 11.149-2.7319-3.4232 3.3986-3.9313 5.927-14.398 2.7319z" style="fill: rgb(35, 31, 29);"/>
      <path d="m44.173 46.946c4.1908-5.0935 1.1928-4.4974 5.6427-10.274-1.4301 4.3996-0.07335 6.1037-2.8292 8.6496 4.1667-3.9145 5.2161-1.2681 8.5109-6.6113-1.2652 4.6549-0.66257 5.7695-11.324 8.2357z" style="fill: rgb(35, 31, 29);"/>
      <path d="m49.239 42.834c1.9686-4.956 0.77773-8.6259 2.2601-11.276 0.8874 4.599 0.92097 6.061-0.04507 8.5362 2.168-4.5874 3.0711-2.0819 5.9108-7.9875 0.19804 4.8854-2.4883 7.3952-8.1258 10.727z" style="fill: rgb(35, 31, 29);"/>
      <path d="m52.904 36.829c0.61882-5.2967-1.186-3.9556-1.6213-11.403 2.7858 4.6557 3.049 5.8376 2.7565 8.4784 0.90682-4.9922 1.6893-3.1011 2.9038-9.5405 1.4557 4.6676 0.54422 7.7872-4.0389 12.465z" style="fill: rgb(35, 31, 29);"/>
      <path d="m54.495 30.219c-0.99465-5.2025-4.1629-4.3998-4.665-9.93 1.6808 3.8498 3.7914 1.6747 4.5616 6.7378-0.41616-5.0568 1.1244-6.7552-0.25513-9.524 3.4264 3.4673 1.8767 6.1997 0.35852 12.716z" style="fill: rgb(35, 31, 29);"/>
      <path d="m53.683 23.943c-1.6592-4.8333-5.6396-2.7016-6.1417-8.2318 1.6808 2.5946 3.2008 1.4532 5.3738 5.5564-1.1545-3.1371 0.16456-3.3588-2.6917-7.2351 3.6479 1.9906 3.944 3.5417 3.4596 9.9105z" style="fill: rgb(35, 31, 29);"/>
      <path d="m51.382 18.337c-4.3408-3.1177-2.278-2.8282-6.4974-6.9404 6.3889 2.5786 4.8099 3.349 6.4974 6.9404z" style="fill: rgb(35, 31, 29);"/>
    </g>
    <g transform="translate(-.28149 -1.9064)" fill="url(#a)">
      <g transform="translate(.27234,.27234)">
        <path d="m37.867 53.851c-12.969-13.287-10.453 4.822-22.15-4.0609 12.408 1.8981 8.9231-7.861 22.962 3.101l-0.81218 0.95985z" style="fill: rgb(35, 31, 29);"/>
        <path d="m25.758 48.019c-6.1761-2.3157-1.7878-1.0064-8.8601-5.9806 2.3045 3.4939 1.9518 5.1538 5.6114 5.9806-5.5657-1.3068-6.0419 1.001-11.149-2.7319 3.4232 3.3986 3.9313 5.927 14.398 2.7319z" style="fill: rgb(35, 31, 29);"/>
        <path d="m19.012 46.946c-4.1908-5.0935-1.1928-4.4974-5.6427-10.274 1.4301 4.3996 0.07335 6.1037 2.8292 8.6496-4.1667-3.9145-5.2161-1.2681-8.5109-6.6113 1.2652 4.6549 0.66257 5.7695 11.324 8.2357z" style="fill: rgb(35, 31, 29);"/>
        <path d="m13.947 42.834c-1.9686-4.956-0.77773-8.6259-2.2601-11.276-0.8874 4.599-0.92097 6.061 0.04507 8.5362-2.168-4.5874-3.0711-2.0819-5.9108-7.9875-0.19804 4.8854 2.4883 7.3952 8.1258 10.727z" style="fill: rgb(35, 31, 29);"/>
        <path d="m10.282 36.829c-0.61882-5.2967 1.186-3.9556 1.6213-11.403-2.7858 4.6557-3.049 5.8376-2.7565 8.4784-0.90682-4.9922-1.6893-3.1011-2.9038-9.5405-1.4557 4.6676-0.54422 7.7872 4.0389 12.465z" style="fill: rgb(35, 31, 29);"/>
        <path d="m8.6903 30.219c0.99465-5.2025 4.1629-4.3998 4.665-9.93-1.6808 3.8498-3.7914 1.6747-4.5616 6.7378 0.41616-5.0568-1.1244-6.7552 0.25513-9.524-3.4264 3.4673-1.8767 6.1997-0.35852 12.716z" style="fill: rgb(35, 31, 29);"/>
        <path d="m9.5025 23.943c1.6592-4.8333 5.6396-2.7016 6.1417-8.2318-1.6808 2.5946-3.2008 1.4532-5.3738 5.5564 1.1545-3.1371-0.16456-3.3588 2.6917-7.2351-3.6479 1.9906-3.944 3.5417-3.4596 9.9105z" style="fill: rgb(35, 31, 29);"/>
        <path d="m11.803 18.337c4.3408-3.1177 2.278-2.8282 6.4974-6.9404-6.3889 2.5786-4.8099 3.349-6.4974 6.9404z" style="fill: rgb(35, 31, 29);"/>
      </g>
      <path d="m25.319 53.851c12.969-13.287 10.453 4.822 22.15-4.0609-12.408 1.8981-8.9231-7.861-22.962 3.101l0.81218 0.95985z" style="fill: rgb(35, 31, 29);"/>
      <path d="m37.428 48.019c6.1761-2.3157 1.7878-1.0064 8.8601-5.9806-2.3045 3.4939-1.9518 5.1538-5.6114 5.9806 5.5657-1.3068 6.0419 1.001 11.149-2.7319-3.4232 3.3986-3.9313 5.927-14.398 2.7319z" style="fill: rgb(35, 31, 29);"/>
      <path d="m44.173 46.946c4.1908-5.0935 1.1928-4.4974 5.6427-10.274-1.4301 4.3996-0.07335 6.1037-2.8292 8.6496 4.1667-3.9145 5.2161-1.2681 8.5109-6.6113-1.2652 4.6549-0.66257 5.7695-11.324 8.2357z" style="fill: rgb(35, 31, 29);"/>
      <path d="m49.239 42.834c1.9686-4.956 0.77773-8.6259 2.2601-11.276 0.8874 4.599 0.92097 6.061-0.04507 8.5362 2.168-4.5874 3.0711-2.0819 5.9108-7.9875 0.19804 4.8854-2.4883 7.3952-8.1258 10.727z" style="fill: rgb(35, 31, 29);"/>
      <path d="m52.904 36.829c0.61882-5.2967-1.186-3.9556-1.6213-11.403 2.7858 4.6557 3.049 5.8376 2.7565 8.4784 0.90682-4.9922 1.6893-3.1011 2.9038-9.5405 1.4557 4.6676 0.54422 7.7872-4.0389 12.465z" style="fill: rgb(35, 31, 29);"/>
      <path d="m54.495 30.219c-0.99465-5.2025-4.1629-4.3998-4.665-9.93 1.6808 3.8498 3.7914 1.6747 4.5616 6.7378-0.41616-5.0568 1.1244-6.7552-0.25513-9.524 3.4264 3.4673 1.8767 6.1997 0.35852 12.716z" style="fill: rgb(35, 31, 29);"/>
      <path d="m53.683 23.943c-1.6592-4.8333-5.6396-2.7016-6.1417-8.2318 1.6808 2.5946 3.2008 1.4532 5.3738 5.5564-1.1545-3.1371 0.16456-3.3588-2.6917-7.2351 3.6479 1.9906 3.944 3.5417 3.4596 9.9105z" style="fill: rgb(35, 31, 29);"/>
      <path d="m51.382 18.337c-4.3408-3.1177-2.278-2.8282-6.4974-6.9404 6.3889 2.5786 4.8099 3.349 6.4974 6.9404z" style="fill: rgb(35, 31, 29);"/>
    </g>
    <path d="M 19.568 38.08 L 18.178 38.08 L 18.178 37.69 L 18.458 37.63 L 18.458 35.76 L 18.178 35.7 L 18.178 35.31 L 18.458 35.31 L 19.428 35.31 C 19.775 35.31 20.048 35.373 20.248 35.5 C 20.441 35.627 20.538 35.817 20.538 36.07 C 20.538 36.203 20.508 36.32 20.448 36.42 C 20.381 36.527 20.285 36.607 20.158 36.66 C 20.271 36.687 20.361 36.727 20.428 36.78 C 20.501 36.84 20.555 36.91 20.588 36.99 C 20.615 37.07 20.628 37.16 20.628 37.26 C 20.628 37.527 20.538 37.73 20.358 37.87 C 20.178 38.01 19.915 38.08 19.568 38.08 Z M 19.128 36.9 L 19.128 37.57 L 19.568 37.57 C 19.701 37.57 19.801 37.543 19.868 37.49 C 19.935 37.443 19.968 37.367 19.968 37.26 C 19.968 37.18 19.955 37.113 19.928 37.06 C 19.901 37.007 19.861 36.967 19.808 36.94 C 19.755 36.913 19.685 36.9 19.598 36.9 L 19.128 36.9 Z M 19.128 35.82 L 19.128 36.46 L 19.398 36.46 C 19.558 36.46 19.678 36.433 19.758 36.38 C 19.831 36.333 19.868 36.257 19.868 36.15 C 19.868 36.037 19.831 35.953 19.758 35.9 C 19.685 35.847 19.575 35.82 19.428 35.82 L 19.128 35.82 ZM 22.703 38.12 C 22.503 38.12 22.33 38.077 22.183 37.99 C 22.03 37.903 21.91 37.783 21.823 37.63 C 21.743 37.483 21.703 37.313 21.703 37.12 L 21.703 37.05 C 21.703 36.843 21.74 36.657 21.813 36.49 C 21.886 36.33 21.993 36.207 22.133 36.12 C 22.28 36.027 22.456 35.98 22.663 35.98 C 22.85 35.98 23.006 36.017 23.133 36.09 C 23.26 36.163 23.36 36.27 23.433 36.41 C 23.5 36.543 23.533 36.713 23.533 36.92 L 23.533 37.26 L 22.393 37.26 L 22.393 37.28 C 22.406 37.34 22.43 37.397 22.463 37.45 C 22.496 37.497 22.543 37.537 22.603 37.57 C 22.663 37.597 22.736 37.61 22.823 37.61 C 22.91 37.61 22.993 37.6 23.073 37.58 C 23.16 37.56 23.25 37.53 23.343 37.49 L 23.493 37.89 C 23.4 37.957 23.286 38.013 23.153 38.06 C 23.02 38.1 22.87 38.12 22.703 38.12 Z M 22.393 36.84 L 22.393 36.85 L 22.923 36.85 L 22.923 36.8 C 22.923 36.727 22.913 36.667 22.893 36.62 C 22.88 36.567 22.856 36.527 22.823 36.5 C 22.79 36.48 22.74 36.47 22.673 36.47 C 22.606 36.47 22.553 36.483 22.513 36.51 C 22.473 36.543 22.443 36.59 22.423 36.65 C 22.41 36.703 22.4 36.767 22.393 36.84 ZM 25.572 38.12 C 25.412 38.12 25.262 38.107 25.122 38.08 C 24.982 38.047 24.855 38.003 24.742 37.95 L 24.732 37.31 L 25.182 37.31 L 25.262 37.61 C 25.289 37.623 25.322 37.637 25.362 37.65 C 25.402 37.663 25.452 37.67 25.512 37.67 C 25.619 37.67 25.692 37.657 25.732 37.63 C 25.772 37.597 25.792 37.56 25.792 37.52 C 25.792 37.473 25.769 37.433 25.722 37.4 C 25.675 37.36 25.579 37.327 25.432 37.3 C 25.192 37.253 25.012 37.173 24.892 37.06 C 24.779 36.947 24.722 36.803 24.722 36.63 C 24.722 36.517 24.749 36.41 24.802 36.31 C 24.855 36.217 24.945 36.14 25.072 36.08 C 25.192 36.02 25.352 35.99 25.552 35.99 C 25.705 35.99 25.852 36.003 25.992 36.03 C 26.132 36.057 26.249 36.09 26.342 36.13 L 26.342 36.75 L 25.892 36.75 L 25.832 36.48 C 25.805 36.46 25.772 36.447 25.732 36.44 C 25.699 36.427 25.659 36.42 25.612 36.42 C 25.525 36.42 25.462 36.437 25.422 36.47 C 25.382 36.497 25.362 36.537 25.362 36.59 C 25.362 36.617 25.372 36.643 25.392 36.67 C 25.405 36.697 25.439 36.723 25.492 36.75 C 25.545 36.777 25.619 36.8 25.712 36.82 C 25.952 36.873 26.129 36.947 26.242 37.04 C 26.362 37.133 26.422 37.273 26.422 37.46 C 26.422 37.66 26.349 37.82 26.202 37.94 C 26.062 38.06 25.852 38.12 25.572 38.12 ZM 28.404 38.12 C 28.184 38.12 28.02 38.063 27.914 37.95 C 27.8 37.837 27.744 37.657 27.744 37.41 L 27.744 36.48 L 27.484 36.48 L 27.484 36.02 L 27.744 36.02 L 27.744 35.51 L 28.404 35.51 L 28.404 36.02 L 28.744 36.02 L 28.744 36.48 L 28.404 36.48 L 28.404 37.4 C 28.404 37.467 28.42 37.513 28.454 37.54 C 28.48 37.567 28.52 37.58 28.574 37.58 C 28.6 37.58 28.624 37.58 28.644 37.58 C 28.67 37.58 28.694 37.577 28.714 37.57 L 28.764 38.07 C 28.704 38.09 28.644 38.103 28.584 38.11 C 28.524 38.117 28.464 38.12 28.404 38.12 ZM 31.068 38.08 L 29.918 38.08 L 29.918 37.69 L 30.158 37.63 L 30.158 36.47 L 29.868 36.41 L 29.868 36.02 L 30.788 36.02 L 30.798 36.27 L 30.808 36.32 C 30.848 36.207 30.905 36.12 30.978 36.06 C 31.045 36.007 31.128 35.98 31.228 35.98 C 31.255 35.98 31.288 35.983 31.328 35.99 C 31.368 35.99 31.408 35.997 31.448 36.01 L 31.378 36.63 L 31.088 36.61 C 31.022 36.61 30.972 36.617 30.938 36.63 C 30.898 36.65 30.862 36.68 30.828 36.72 L 30.828 37.63 L 31.068 37.69 L 31.068 38.08 ZM 33.445 38.12 C 33.245 38.12 33.072 38.077 32.925 37.99 C 32.772 37.903 32.652 37.783 32.565 37.63 C 32.485 37.483 32.445 37.313 32.445 37.12 L 32.445 37.05 C 32.445 36.843 32.482 36.657 32.555 36.49 C 32.628 36.33 32.735 36.207 32.875 36.12 C 33.022 36.027 33.198 35.98 33.405 35.98 C 33.592 35.98 33.748 36.017 33.875 36.09 C 34.002 36.163 34.102 36.27 34.175 36.41 C 34.242 36.543 34.275 36.713 34.275 36.92 L 34.275 37.26 L 33.135 37.26 L 33.135 37.28 C 33.148 37.34 33.172 37.397 33.205 37.45 C 33.238 37.497 33.285 37.537 33.345 37.57 C 33.405 37.597 33.478 37.61 33.565 37.61 C 33.652 37.61 33.735 37.6 33.815 37.58 C 33.902 37.56 33.992 37.53 34.085 37.49 L 34.235 37.89 C 34.142 37.957 34.028 38.013 33.895 38.06 C 33.762 38.1 33.612 38.12 33.445 38.12 Z M 33.135 36.84 L 33.135 36.85 L 33.665 36.85 L 33.665 36.8 C 33.665 36.727 33.655 36.667 33.635 36.62 C 33.622 36.567 33.598 36.527 33.565 36.5 C 33.532 36.48 33.482 36.47 33.415 36.47 C 33.348 36.47 33.295 36.483 33.255 36.51 C 33.215 36.543 33.185 36.59 33.165 36.65 C 33.152 36.703 33.142 36.767 33.135 36.84 ZM 36.142 38.12 C 35.982 38.12 35.842 38.077 35.722 37.99 C 35.609 37.903 35.522 37.783 35.462 37.63 C 35.396 37.477 35.362 37.297 35.362 37.09 L 35.362 37.05 C 35.362 36.837 35.396 36.65 35.462 36.49 C 35.522 36.33 35.609 36.207 35.722 36.12 C 35.842 36.027 35.979 35.98 36.132 35.98 C 36.246 35.98 36.339 36.003 36.412 36.05 C 36.492 36.097 36.562 36.16 36.622 36.24 L 36.622 35.56 L 36.332 35.5 L 36.332 35.11 L 36.622 35.11 L 37.292 35.11 L 37.292 37.63 L 37.532 37.69 L 37.532 38.08 L 36.712 38.08 L 36.662 37.82 C 36.602 37.92 36.529 37.993 36.442 38.04 C 36.356 38.093 36.256 38.12 36.142 38.12 Z M 36.352 37.61 C 36.406 37.61 36.456 37.6 36.502 37.58 C 36.556 37.553 36.596 37.52 36.622 37.48 L 36.622 36.65 C 36.596 36.603 36.559 36.563 36.512 36.53 C 36.466 36.503 36.412 36.49 36.352 36.49 C 36.279 36.49 36.219 36.513 36.172 36.56 C 36.126 36.607 36.089 36.673 36.062 36.76 C 36.042 36.847 36.032 36.943 36.032 37.05 L 36.032 37.09 C 36.032 37.257 36.056 37.383 36.102 37.47 C 36.149 37.563 36.232 37.61 36.352 37.61 ZM 39.342 38.12 C 39.182 38.12 39.042 38.077 38.922 37.99 C 38.808 37.903 38.722 37.783 38.662 37.63 C 38.595 37.477 38.562 37.297 38.562 37.09 L 38.562 37.05 C 38.562 36.837 38.595 36.65 38.662 36.49 C 38.722 36.33 38.808 36.207 38.922 36.12 C 39.042 36.027 39.178 35.98 39.332 35.98 C 39.445 35.98 39.538 36.003 39.612 36.05 C 39.692 36.097 39.762 36.16 39.822 36.24 L 39.822 35.56 L 39.532 35.5 L 39.532 35.11 L 39.822 35.11 L 40.492 35.11 L 40.492 37.63 L 40.732 37.69 L 40.732 38.08 L 39.912 38.08 L 39.862 37.82 C 39.802 37.92 39.728 37.993 39.642 38.04 C 39.555 38.093 39.455 38.12 39.342 38.12 Z M 39.552 37.61 C 39.605 37.61 39.655 37.6 39.702 37.58 C 39.755 37.553 39.795 37.52 39.822 37.48 L 39.822 36.65 C 39.795 36.603 39.758 36.563 39.712 36.53 C 39.665 36.503 39.612 36.49 39.552 36.49 C 39.478 36.49 39.418 36.513 39.372 36.56 C 39.325 36.607 39.288 36.673 39.262 36.76 C 39.242 36.847 39.232 36.943 39.232 37.05 L 39.232 37.09 C 39.232 37.257 39.255 37.383 39.302 37.47 C 39.348 37.563 39.432 37.61 39.552 37.61 ZM 42.891 38.08 L 41.741 38.08 L 41.741 37.69 L 41.981 37.63 L 41.981 36.47 L 41.691 36.41 L 41.691 36.02 L 42.651 36.02 L 42.651 37.63 L 42.891 37.69 L 42.891 38.08 Z M 42.651 35.63 L 41.961 35.63 L 41.961 35.11 L 42.651 35.11 L 42.651 35.63 ZM 44.791 38.12 C 44.571 38.12 44.407 38.063 44.301 37.95 C 44.187 37.837 44.131 37.657 44.131 37.41 L 44.131 36.48 L 43.871 36.48 L 43.871 36.02 L 44.131 36.02 L 44.131 35.51 L 44.791 35.51 L 44.791 36.02 L 45.131 36.02 L 45.131 36.48 L 44.791 36.48 L 44.791 37.4 C 44.791 37.467 44.807 37.513 44.841 37.54 C 44.867 37.567 44.907 37.58 44.961 37.58 C 44.987 37.58 45.011 37.58 45.031 37.58 C 45.057 37.58 45.081 37.577 45.101 37.57 L 45.151 38.07 C 45.091 38.09 45.031 38.103 44.971 38.11 C 44.911 38.117 44.851 38.12 44.791 38.12 Z" transform="matrix(1, 0, 0, 1, 0, 0)" style="fill: rgb(51, 51, 51); line-height: 6.20481px; white-space: pre;"/>
    <path d="M 25.936 41.868 L 25.596 41.868 L 25.596 41.568 L 25.936 41.568 L 25.936 41.868 ZM 26.887 42.378 C 26.827 42.378 26.757 42.371 26.677 42.358 C 26.597 42.338 26.527 42.315 26.467 42.288 L 26.527 42.038 C 26.581 42.065 26.637 42.085 26.697 42.098 C 26.764 42.111 26.824 42.118 26.877 42.118 C 26.964 42.118 27.031 42.091 27.077 42.038 C 27.117 41.991 27.137 41.921 27.137 41.828 L 27.137 41.748 C 27.097 41.795 27.054 41.831 27.007 41.858 C 26.954 41.878 26.894 41.888 26.827 41.888 C 26.727 41.888 26.641 41.865 26.567 41.818 C 26.494 41.765 26.437 41.691 26.397 41.598 C 26.357 41.505 26.337 41.395 26.337 41.268 L 26.337 41.248 C 26.337 41.115 26.357 40.998 26.397 40.898 C 26.437 40.798 26.491 40.718 26.557 40.658 C 26.631 40.605 26.721 40.578 26.827 40.578 C 26.901 40.578 26.964 40.595 27.017 40.628 C 27.071 40.655 27.117 40.698 27.157 40.758 L 27.187 40.598 L 27.477 40.598 L 27.477 41.828 C 27.477 41.941 27.454 42.038 27.407 42.118 C 27.361 42.205 27.294 42.268 27.207 42.308 C 27.121 42.355 27.014 42.378 26.887 42.378 Z M 26.927 41.628 C 26.974 41.628 27.014 41.618 27.047 41.598 C 27.087 41.578 27.117 41.551 27.137 41.518 L 27.137 40.968 C 27.117 40.928 27.087 40.898 27.047 40.878 C 27.014 40.851 26.974 40.838 26.927 40.838 C 26.867 40.838 26.821 40.858 26.787 40.898 C 26.747 40.931 26.721 40.978 26.707 41.038 C 26.687 41.098 26.677 41.168 26.677 41.248 L 26.677 41.268 C 26.677 41.381 26.697 41.468 26.737 41.528 C 26.777 41.595 26.841 41.628 26.927 41.628 Z M 27.627 40.808 L 27.437 40.848 L 27.287 40.598 L 27.627 40.598 L 27.627 40.808 ZM 28.59 41.868 L 27.92 41.868 L 27.92 41.658 L 28.09 41.628 L 28.09 40.838 L 27.91 40.808 L 27.91 40.598 L 28.43 40.598 L 28.43 41.628 L 28.59 41.658 L 28.59 41.868 Z M 28.43 40.328 L 28.08 40.328 L 28.08 40.038 L 28.43 40.038 L 28.43 40.328 ZM 29.404 41.888 C 29.284 41.888 29.194 41.858 29.134 41.798 C 29.068 41.731 29.034 41.628 29.034 41.488 L 29.034 40.838 L 28.864 40.838 L 28.864 40.598 L 29.034 40.598 L 29.034 40.288 L 29.374 40.288 L 29.374 40.598 L 29.614 40.598 L 29.614 40.838 L 29.374 40.838 L 29.374 41.488 C 29.374 41.535 29.388 41.568 29.414 41.588 C 29.434 41.615 29.461 41.628 29.494 41.628 C 29.514 41.628 29.534 41.625 29.554 41.618 C 29.574 41.618 29.594 41.615 29.614 41.608 L 29.644 41.858 C 29.604 41.865 29.564 41.871 29.524 41.878 C 29.484 41.885 29.444 41.888 29.404 41.888 ZM 30.605 41.868 L 29.955 41.868 L 29.955 41.658 L 30.115 41.628 L 30.115 40.278 L 29.935 40.248 L 29.935 40.038 L 30.455 40.038 L 30.455 40.758 C 30.495 40.705 30.545 40.661 30.605 40.628 C 30.665 40.595 30.732 40.578 30.805 40.578 C 30.932 40.578 31.032 40.621 31.105 40.708 C 31.185 40.788 31.225 40.918 31.225 41.098 L 31.225 41.628 L 31.385 41.658 L 31.385 41.868 L 30.735 41.868 L 30.735 41.658 L 30.875 41.628 L 30.875 41.098 C 30.875 41.005 30.858 40.938 30.825 40.898 C 30.792 40.858 30.742 40.838 30.675 40.838 C 30.628 40.838 30.585 40.848 30.545 40.868 C 30.512 40.888 30.482 40.918 30.455 40.958 L 30.455 41.628 L 30.605 41.658 L 30.605 41.868 ZM 32.177 41.888 C 32.044 41.888 31.94 41.848 31.867 41.768 C 31.787 41.681 31.747 41.548 31.747 41.368 L 31.747 40.838 L 31.607 40.808 L 31.607 40.598 L 31.747 40.598 L 32.097 40.598 L 32.097 41.368 C 32.097 41.461 32.11 41.528 32.137 41.568 C 32.17 41.608 32.22 41.628 32.287 41.628 C 32.334 41.628 32.377 41.618 32.417 41.598 C 32.457 41.578 32.49 41.548 32.517 41.508 L 32.517 40.838 L 32.367 40.808 L 32.367 40.598 L 32.517 40.598 L 32.857 40.598 L 32.857 41.628 L 33.007 41.658 L 33.007 41.868 L 32.557 41.868 L 32.537 41.708 C 32.497 41.768 32.447 41.815 32.387 41.848 C 32.327 41.875 32.257 41.888 32.177 41.888 ZM 34.08 41.888 C 34 41.888 33.933 41.875 33.88 41.848 C 33.82 41.815 33.773 41.768 33.74 41.708 L 33.71 41.868 L 33.42 41.868 L 33.42 40.278 L 33.23 40.248 L 33.23 40.038 L 33.76 40.038 L 33.76 40.738 C 33.793 40.685 33.837 40.645 33.89 40.618 C 33.943 40.591 34.007 40.578 34.08 40.578 C 34.18 40.578 34.267 40.605 34.34 40.658 C 34.413 40.711 34.467 40.788 34.5 40.888 C 34.54 40.988 34.56 41.108 34.56 41.248 L 34.56 41.268 C 34.56 41.395 34.54 41.505 34.5 41.598 C 34.467 41.691 34.413 41.765 34.34 41.818 C 34.267 41.865 34.18 41.888 34.08 41.888 Z M 33.97 41.628 C 34.057 41.628 34.12 41.598 34.16 41.538 C 34.2 41.471 34.22 41.381 34.22 41.268 L 34.22 41.248 C 34.22 41.161 34.21 41.088 34.19 41.028 C 34.177 40.968 34.15 40.921 34.11 40.888 C 34.077 40.855 34.033 40.838 33.98 40.838 C 33.927 40.838 33.88 40.851 33.84 40.878 C 33.807 40.905 33.78 40.938 33.76 40.978 L 33.76 41.508 C 33.78 41.548 33.81 41.578 33.85 41.598 C 33.883 41.618 33.923 41.628 33.97 41.628 ZM 35.333 41.868 L 34.993 41.868 L 34.993 41.568 L 35.333 41.568 L 35.333 41.868 ZM 36.384 41.868 L 35.714 41.868 L 35.714 41.658 L 35.884 41.628 L 35.884 40.838 L 35.704 40.808 L 35.704 40.598 L 36.224 40.598 L 36.224 41.628 L 36.384 41.658 L 36.384 41.868 Z M 36.224 40.328 L 35.874 40.328 L 35.874 40.038 L 36.224 40.038 L 36.224 40.328 ZM 37.308 41.888 C 37.182 41.888 37.075 41.861 36.988 41.808 C 36.895 41.755 36.825 41.678 36.778 41.578 C 36.732 41.485 36.708 41.375 36.708 41.248 L 36.708 41.218 C 36.708 41.098 36.732 40.988 36.778 40.888 C 36.825 40.788 36.895 40.711 36.988 40.658 C 37.075 40.605 37.182 40.578 37.308 40.578 C 37.428 40.578 37.535 40.605 37.628 40.658 C 37.715 40.711 37.782 40.788 37.828 40.888 C 37.875 40.981 37.898 41.091 37.898 41.218 L 37.898 41.248 C 37.898 41.375 37.875 41.485 37.828 41.578 C 37.782 41.678 37.715 41.755 37.628 41.808 C 37.535 41.861 37.428 41.888 37.308 41.888 Z M 37.308 41.628 C 37.368 41.628 37.415 41.611 37.448 41.578 C 37.488 41.551 37.518 41.508 37.538 41.448 C 37.552 41.388 37.558 41.321 37.558 41.248 L 37.558 41.218 C 37.558 41.145 37.552 41.081 37.538 41.028 C 37.518 40.968 37.488 40.921 37.448 40.888 C 37.415 40.855 37.368 40.838 37.308 40.838 C 37.248 40.838 37.198 40.855 37.158 40.888 C 37.118 40.921 37.092 40.968 37.078 41.028 C 37.058 41.081 37.048 41.145 37.048 41.218 L 37.048 41.248 C 37.048 41.321 37.058 41.388 37.078 41.448 C 37.092 41.508 37.118 41.551 37.158 41.578 C 37.198 41.611 37.248 41.628 37.308 41.628 Z" transform="matrix(1, 0, 0, 1, 0, 0)" style="fill: rgb(53, 24, 4); line-height: 3.80295px; white-space: pre;"/>
  </g>
</svg>